<svg width="23" height="23" viewBox="0 0 23 23" fill="none" xmlns="http://www.w3.org/2000/svg">
<path fill-rule="evenodd" clip-rule="evenodd" d="M2.1605 11.145C2.14143 6.2021 6.13301 2.17961 11.0759 2.16055C16.0189 2.14148 20.0414 6.13306 20.0604 11.076C20.0795 16.0189 16.0879 20.0414 11.145 20.0605C6.20205 20.0795 2.17956 16.088 2.1605 11.145ZM11.0809 3.4523C6.85141 3.46861 3.43593 6.91053 3.45224 11.14C3.46856 15.3696 6.91048 18.785 11.14 18.7687C15.3695 18.7524 18.785 15.3105 18.7687 11.081C18.7524 6.85146 15.3104 3.43598 11.0809 3.4523Z" fill="black"/>
<path fill-rule="evenodd" clip-rule="evenodd" d="M8.34582 8.51709C8.72327 8.13672 9.33761 8.13435 9.71798 8.5118L11.1164 9.89948L12.5041 8.50106C12.8815 8.12069 13.4959 8.11832 13.8762 8.49576C14.2566 8.87321 14.259 9.48754 13.8815 9.86791L12.4938 11.2663L13.8923 12.654C14.2726 13.0315 14.275 13.6458 13.8976 14.0262C13.5201 14.4065 12.9058 14.4089 12.5254 14.0315L11.127 12.6438L9.73931 14.0422C9.36186 14.4226 8.74753 14.4249 8.36716 14.0475C7.98678 13.67 7.98442 13.0557 8.36186 12.6753L9.74954 11.2769L8.35112 9.88925C7.97075 9.5118 7.96838 8.89746 8.34582 8.51709Z" fill="black"/>
</svg>
