<svg width="18" height="13" viewBox="0 0 18 13" fill="none" xmlns="http://www.w3.org/2000/svg">
<path opacity="0.63" d="M1.28571 2.52778H16.7143C17.449 2.52778 18 1.98611 18 1.26389C18 0.541666 17.449 0 16.7143 0H1.28571C0.55102 0 0 0.541666 0 1.26389C0 1.98611 0.55102 2.52778 1.28571 2.52778ZM1.28571 7.76389H16.7143C17.449 7.76389 18 7.22222 18 6.5C18 5.77778 17.449 5.41667 16.7143 5.41667H1.28571C0.55102 5.41667 0 5.95833 0 6.68055C0 7.40278 0.55102 7.76389 1.28571 7.76389ZM1.28571 13H16.7143C17.449 13 18 12.4583 18 11.7361C18 11.0139 17.449 10.4722 16.7143 10.4722H1.28571C0.55102 10.4722 0 11.0139 0 11.7361C0 12.6389 0.55102 13 1.28571 13Z" fill="black"/>
</svg>
